<mxfile host="app.diagrams.net" agent="Mozilla/5.0 (Windows NT 10.0; Win64; x64) AppleWebKit/537.36 (KHTML, like Gecko) Chrome/131.0.0.0 Safari/537.36" version="26.0.4">
  <diagram id="prtHgNgQTEPvFCAcTncT" name="Page-1">
    <mxGraphModel dx="933" dy="490" grid="1" gridSize="10" guides="1" tooltips="1" connect="1" arrows="1" fold="1" page="1" pageScale="1" pageWidth="827" pageHeight="1169" math="0" shadow="0">
      <root>
        <mxCell id="0" />
        <mxCell id="1" parent="0" />
        <mxCell id="9ZQk6cEpKRvBY14q108D-1" value="总流程" style="swimlane;childLayout=stackLayout;resizeParent=1;resizeParentMax=0;startSize=20;html=1;" vertex="1" parent="1">
          <mxGeometry x="160" y="40" width="700" height="1700" as="geometry" />
        </mxCell>
        <mxCell id="9ZQk6cEpKRvBY14q108D-2" value="Mcs" style="swimlane;startSize=20;html=1;" vertex="1" parent="9ZQk6cEpKRvBY14q108D-1">
          <mxGeometry y="20" width="340" height="1680" as="geometry" />
        </mxCell>
        <mxCell id="9ZQk6cEpKRvBY14q108D-3" value="满足间隔" style="rhombus;whiteSpace=wrap;html=1;strokeWidth=2;" vertex="1" parent="9ZQk6cEpKRvBY14q108D-2">
          <mxGeometry x="140" y="330" width="80" height="80" as="geometry" />
        </mxCell>
        <mxCell id="9ZQk6cEpKRvBY14q108D-42" value="" style="edgeStyle=orthogonalEdgeStyle;rounded=0;orthogonalLoop=1;jettySize=auto;html=1;" edge="1" parent="9ZQk6cEpKRvBY14q108D-2" source="9ZQk6cEpKRvBY14q108D-36" target="9ZQk6cEpKRvBY14q108D-41">
          <mxGeometry relative="1" as="geometry" />
        </mxCell>
        <mxCell id="9ZQk6cEpKRvBY14q108D-36" value="获取全量安装应用" style="whiteSpace=wrap;html=1;strokeWidth=2;" vertex="1" parent="9ZQk6cEpKRvBY14q108D-2">
          <mxGeometry x="120" y="630" width="120" height="60" as="geometry" />
        </mxCell>
        <mxCell id="9ZQk6cEpKRvBY14q108D-41" value="过滤 OS 应用" style="whiteSpace=wrap;html=1;strokeWidth=2;" vertex="1" parent="9ZQk6cEpKRvBY14q108D-2">
          <mxGeometry x="120" y="770" width="120" height="60" as="geometry" />
        </mxCell>
        <mxCell id="9ZQk6cEpKRvBY14q108D-4" value="System_Framework" style="swimlane;startSize=20;html=1;" vertex="1" parent="9ZQk6cEpKRvBY14q108D-1">
          <mxGeometry x="340" y="20" width="360" height="1680" as="geometry" />
        </mxCell>
        <mxCell id="9ZQk6cEpKRvBY14q108D-50" value="" style="edgeStyle=orthogonalEdgeStyle;rounded=0;orthogonalLoop=1;jettySize=auto;html=1;exitX=0;exitY=0.5;exitDx=0;exitDy=0;entryX=0.5;entryY=0;entryDx=0;entryDy=0;" edge="1" parent="9ZQk6cEpKRvBY14q108D-4" source="9ZQk6cEpKRvBY14q108D-30" target="9ZQk6cEpKRvBY14q108D-49">
          <mxGeometry relative="1" as="geometry" />
        </mxCell>
        <mxCell id="9ZQk6cEpKRvBY14q108D-55" value="Yes" style="edgeLabel;html=1;align=center;verticalAlign=middle;resizable=0;points=[];" vertex="1" connectable="0" parent="9ZQk6cEpKRvBY14q108D-50">
          <mxGeometry x="-0.6109" y="-2" relative="1" as="geometry">
            <mxPoint as="offset" />
          </mxGeometry>
        </mxCell>
        <mxCell id="9ZQk6cEpKRvBY14q108D-30" value="系统支持" style="rhombus;whiteSpace=wrap;html=1;strokeWidth=2;" vertex="1" parent="9ZQk6cEpKRvBY14q108D-4">
          <mxGeometry x="177" y="1010" width="80" height="80" as="geometry" />
        </mxCell>
        <mxCell id="9ZQk6cEpKRvBY14q108D-49" value="查询权限信息" style="whiteSpace=wrap;html=1;strokeWidth=2;" vertex="1" parent="9ZQk6cEpKRvBY14q108D-4">
          <mxGeometry x="40" y="1167" width="120" height="60" as="geometry" />
        </mxCell>
        <mxCell id="9ZQk6cEpKRvBY14q108D-6" value="" style="edgeStyle=orthogonalEdgeStyle;rounded=0;orthogonalLoop=1;jettySize=auto;html=1;" edge="1" parent="1" source="9ZQk6cEpKRvBY14q108D-7" target="9ZQk6cEpKRvBY14q108D-9">
          <mxGeometry relative="1" as="geometry" />
        </mxCell>
        <mxCell id="9ZQk6cEpKRvBY14q108D-7" value="Start" style="strokeWidth=2;html=1;shape=mxgraph.flowchart.terminator;whiteSpace=wrap;" vertex="1" parent="1">
          <mxGeometry x="290" y="120" width="100" height="60" as="geometry" />
        </mxCell>
        <mxCell id="9ZQk6cEpKRvBY14q108D-8" value="" style="edgeStyle=orthogonalEdgeStyle;rounded=0;orthogonalLoop=1;jettySize=auto;html=1;" edge="1" parent="1" source="9ZQk6cEpKRvBY14q108D-9" target="9ZQk6cEpKRvBY14q108D-3">
          <mxGeometry relative="1" as="geometry" />
        </mxCell>
        <mxCell id="9ZQk6cEpKRvBY14q108D-9" value="Alarm 埋点 触发" style="whiteSpace=wrap;html=1;strokeWidth=2;" vertex="1" parent="1">
          <mxGeometry x="280" y="260" width="120" height="60" as="geometry" />
        </mxCell>
        <mxCell id="9ZQk6cEpKRvBY14q108D-10" value="" style="edgeStyle=orthogonalEdgeStyle;rounded=0;orthogonalLoop=1;jettySize=auto;html=1;exitX=0.5;exitY=1;exitDx=0;exitDy=0;" edge="1" parent="1" source="9ZQk6cEpKRvBY14q108D-3">
          <mxGeometry relative="1" as="geometry">
            <mxPoint x="340" y="540" as="targetPoint" />
            <mxPoint x="340" y="460" as="sourcePoint" />
          </mxGeometry>
        </mxCell>
        <mxCell id="9ZQk6cEpKRvBY14q108D-35" value="Yes" style="edgeLabel;html=1;align=center;verticalAlign=middle;resizable=0;points=[];" vertex="1" connectable="0" parent="9ZQk6cEpKRvBY14q108D-10">
          <mxGeometry x="-0.4636" relative="1" as="geometry">
            <mxPoint as="offset" />
          </mxGeometry>
        </mxCell>
        <mxCell id="9ZQk6cEpKRvBY14q108D-11" value="" style="edgeStyle=orthogonalEdgeStyle;rounded=0;orthogonalLoop=1;jettySize=auto;html=1;entryX=0.5;entryY=0;entryDx=0;entryDy=0;" edge="1" parent="1" source="9ZQk6cEpKRvBY14q108D-13" target="9ZQk6cEpKRvBY14q108D-36">
          <mxGeometry relative="1" as="geometry">
            <mxPoint x="340" y="700" as="targetPoint" />
          </mxGeometry>
        </mxCell>
        <mxCell id="9ZQk6cEpKRvBY14q108D-12" value="Yes" style="edgeLabel;html=1;align=center;verticalAlign=middle;resizable=0;points=[];" vertex="1" connectable="0" parent="9ZQk6cEpKRvBY14q108D-11">
          <mxGeometry x="-0.4208" relative="1" as="geometry">
            <mxPoint as="offset" />
          </mxGeometry>
        </mxCell>
        <mxCell id="9ZQk6cEpKRvBY14q108D-46" style="edgeStyle=orthogonalEdgeStyle;rounded=0;orthogonalLoop=1;jettySize=auto;html=1;exitX=0;exitY=0.5;exitDx=0;exitDy=0;endArrow=none;endFill=0;" edge="1" parent="1" source="9ZQk6cEpKRvBY14q108D-13">
          <mxGeometry relative="1" as="geometry">
            <mxPoint x="200" y="580.3703703703702" as="targetPoint" />
          </mxGeometry>
        </mxCell>
        <mxCell id="9ZQk6cEpKRvBY14q108D-47" value="No" style="edgeLabel;html=1;align=center;verticalAlign=middle;resizable=0;points=[];" vertex="1" connectable="0" parent="9ZQk6cEpKRvBY14q108D-46">
          <mxGeometry x="-0.5022" y="-2" relative="1" as="geometry">
            <mxPoint as="offset" />
          </mxGeometry>
        </mxCell>
        <mxCell id="9ZQk6cEpKRvBY14q108D-13" value="充电 &amp;amp; 息屏" style="rhombus;whiteSpace=wrap;html=1;strokeWidth=2;" vertex="1" parent="1">
          <mxGeometry x="300" y="540" width="80" height="80" as="geometry" />
        </mxCell>
        <mxCell id="9ZQk6cEpKRvBY14q108D-19" value="" style="edgeStyle=orthogonalEdgeStyle;rounded=0;orthogonalLoop=1;jettySize=auto;html=1;entryX=0.5;entryY=0;entryDx=0;entryDy=0;" edge="1" parent="1" source="9ZQk6cEpKRvBY14q108D-20" target="9ZQk6cEpKRvBY14q108D-30">
          <mxGeometry relative="1" as="geometry">
            <mxPoint x="610" y="1040" as="targetPoint" />
          </mxGeometry>
        </mxCell>
        <mxCell id="9ZQk6cEpKRvBY14q108D-20" value="确认 OS 是否支持" style="whiteSpace=wrap;html=1;strokeWidth=2;" vertex="1" parent="1">
          <mxGeometry x="280" y="1010" width="120" height="60" as="geometry" />
        </mxCell>
        <mxCell id="9ZQk6cEpKRvBY14q108D-22" value="" style="edgeStyle=orthogonalEdgeStyle;rounded=0;orthogonalLoop=1;jettySize=auto;html=1;" edge="1" parent="1" source="9ZQk6cEpKRvBY14q108D-23" target="9ZQk6cEpKRvBY14q108D-25">
          <mxGeometry relative="1" as="geometry" />
        </mxCell>
        <mxCell id="9ZQk6cEpKRvBY14q108D-23" value="数据解析" style="whiteSpace=wrap;html=1;strokeWidth=2;" vertex="1" parent="1">
          <mxGeometry x="280" y="1227" width="120" height="60" as="geometry" />
        </mxCell>
        <mxCell id="9ZQk6cEpKRvBY14q108D-25" value="数据组装上报" style="whiteSpace=wrap;html=1;strokeWidth=2;" vertex="1" parent="1">
          <mxGeometry x="280" y="1368" width="120" height="60" as="geometry" />
        </mxCell>
        <mxCell id="9ZQk6cEpKRvBY14q108D-32" value="End" style="strokeWidth=2;html=1;shape=mxgraph.flowchart.terminator;whiteSpace=wrap;" vertex="1" parent="1">
          <mxGeometry x="290" y="1570" width="100" height="60" as="geometry" />
        </mxCell>
        <mxCell id="9ZQk6cEpKRvBY14q108D-33" style="edgeStyle=orthogonalEdgeStyle;rounded=0;orthogonalLoop=1;jettySize=auto;html=1;entryX=0.5;entryY=0;entryDx=0;entryDy=0;entryPerimeter=0;exitX=0.5;exitY=1;exitDx=0;exitDy=0;" edge="1" parent="1" source="9ZQk6cEpKRvBY14q108D-25" target="9ZQk6cEpKRvBY14q108D-32">
          <mxGeometry relative="1" as="geometry">
            <mxPoint x="340" y="1491.0000000000002" as="sourcePoint" />
          </mxGeometry>
        </mxCell>
        <mxCell id="9ZQk6cEpKRvBY14q108D-43" style="edgeStyle=orthogonalEdgeStyle;rounded=0;orthogonalLoop=1;jettySize=auto;html=1;exitX=0.5;exitY=1;exitDx=0;exitDy=0;entryX=0.5;entryY=0;entryDx=0;entryDy=0;" edge="1" parent="1" source="9ZQk6cEpKRvBY14q108D-41" target="9ZQk6cEpKRvBY14q108D-20">
          <mxGeometry relative="1" as="geometry" />
        </mxCell>
        <mxCell id="9ZQk6cEpKRvBY14q108D-45" style="edgeStyle=orthogonalEdgeStyle;rounded=0;orthogonalLoop=1;jettySize=auto;html=1;exitX=0;exitY=0.5;exitDx=0;exitDy=0;entryX=0.5;entryY=0;entryDx=0;entryDy=0;entryPerimeter=0;" edge="1" parent="1" source="9ZQk6cEpKRvBY14q108D-3" target="9ZQk6cEpKRvBY14q108D-32">
          <mxGeometry relative="1" as="geometry">
            <mxPoint x="340" y="1530" as="targetPoint" />
            <Array as="points">
              <mxPoint x="200" y="430" />
              <mxPoint x="200" y="1530" />
              <mxPoint x="340" y="1530" />
            </Array>
          </mxGeometry>
        </mxCell>
        <mxCell id="9ZQk6cEpKRvBY14q108D-48" value="No" style="edgeLabel;html=1;align=center;verticalAlign=middle;resizable=0;points=[];" vertex="1" connectable="0" parent="9ZQk6cEpKRvBY14q108D-45">
          <mxGeometry x="-0.9636" relative="1" as="geometry">
            <mxPoint as="offset" />
          </mxGeometry>
        </mxCell>
        <mxCell id="9ZQk6cEpKRvBY14q108D-28" style="edgeStyle=orthogonalEdgeStyle;rounded=0;orthogonalLoop=1;jettySize=auto;html=1;exitX=1;exitY=0.5;exitDx=0;exitDy=0;entryX=0.5;entryY=0;entryDx=0;entryDy=0;entryPerimeter=0;" edge="1" parent="1" source="9ZQk6cEpKRvBY14q108D-30" target="9ZQk6cEpKRvBY14q108D-32">
          <mxGeometry relative="1" as="geometry">
            <mxPoint x="340" y="1530" as="targetPoint" />
            <Array as="points">
              <mxPoint x="820" y="1110" />
              <mxPoint x="820" y="1530" />
              <mxPoint x="340" y="1530" />
            </Array>
            <mxPoint x="720" y="1070" as="sourcePoint" />
          </mxGeometry>
        </mxCell>
        <mxCell id="9ZQk6cEpKRvBY14q108D-54" value="No" style="edgeLabel;html=1;align=center;verticalAlign=middle;resizable=0;points=[];" vertex="1" connectable="0" parent="9ZQk6cEpKRvBY14q108D-28">
          <mxGeometry x="-0.9363" y="1" relative="1" as="geometry">
            <mxPoint as="offset" />
          </mxGeometry>
        </mxCell>
        <mxCell id="9ZQk6cEpKRvBY14q108D-51" style="edgeStyle=orthogonalEdgeStyle;rounded=0;orthogonalLoop=1;jettySize=auto;html=1;exitX=0;exitY=0.5;exitDx=0;exitDy=0;entryX=1;entryY=0.5;entryDx=0;entryDy=0;" edge="1" parent="1" source="9ZQk6cEpKRvBY14q108D-49" target="9ZQk6cEpKRvBY14q108D-23">
          <mxGeometry relative="1" as="geometry" />
        </mxCell>
      </root>
    </mxGraphModel>
  </diagram>
</mxfile>
